<?xml version="1.0" encoding="utf-8"?>
<!DOCTYPE svg PUBLIC "-//W3C//DTD SVG 1.0//EN" "http://www.w3.org/TR/2001/REC-SVG-20010904/DTD/svg10.dtd">
<svg version="1.0" id="Layer_1" xmlns="http://www.w3.org/2000/svg" xmlns:xlink="http://www.w3.org/1999/xlink" x="0px" y="0px"
	 width="382.347px" height="310.896px" viewBox="0 0 382.347 310.896" enable-background="new 0 0 382.347 310.896"
	 xml:space="preserve">
<g id="Logo__x2014__FIXED">
	<g>
		<path fill="#FFFFFF" d="M120.105,310.896c144.279,0,223.228-119.646,223.228-223.227c0-3.366,0-6.732-0.153-10.098
			c15.3-11.016,28.611-24.939,39.168-40.698c-14.076,6.273-29.223,10.404-45.135,12.393c16.218-9.639,28.61-25.092,34.578-43.452
			c-15.147,9.027-31.978,15.453-49.878,18.972C307.53,9.486,287.181,0,264.69,0c-43.299,0-78.489,35.19-78.489,78.489
			c0,6.12,0.765,12.087,1.989,17.901C123.012,93.177,65.178,61.812,26.469,14.382C19.737,26.01,15.912,39.474,15.912,53.856
			c0,27.234,13.923,51.255,34.884,65.331c-12.852-0.459-24.939-3.979-35.496-9.792c0,0.306,0,0.612,0,1.071
			c0,37.944,27.081,69.768,62.883,76.958c-6.579,1.836-13.464,2.755-20.655,2.755c-5.049,0-9.945-0.459-14.688-1.377
			c9.945,31.212,39.015,53.855,73.287,54.468c-26.928,21.113-60.741,33.66-97.461,33.66c-6.273,0-12.546-0.307-18.666-1.071
			C34.578,297.892,75.888,310.896,120.105,310.896"/>
	</g>
</g>
</svg>
